<svg width="231" height="21" viewBox="0 0 231 21" fill="none" xmlns="http://www.w3.org/2000/svg">
<path d="M7.66282 0.448C9.34282 0.448 10.7508 0.656 11.8868 1.072C13.0228 1.488 13.9268 2.056 14.5988 2.776C15.2708 3.48 15.7508 4.296 16.0388 5.224C16.3428 6.152 16.4948 7.128 16.4948 8.152C16.4948 9.192 16.3348 10.184 16.0148 11.128C15.6948 12.072 15.1828 12.912 14.4788 13.648C13.7908 14.368 12.8868 14.944 11.7668 15.376C10.6468 15.792 9.27882 16 7.66282 16H0.19882V0.448H7.66282ZM2.93482 13.6H7.63882C8.82282 13.6 9.80682 13.448 10.5908 13.144C11.3748 12.84 11.9988 12.432 12.4628 11.92C12.9268 11.392 13.2548 10.808 13.4468 10.168C13.6388 9.512 13.7348 8.84 13.7348 8.152C13.7348 7.464 13.6388 6.808 13.4468 6.184C13.2548 5.544 12.9268 4.976 12.4628 4.48C11.9988 3.968 11.3748 3.568 10.5908 3.28C9.80682 2.976 8.82282 2.824 7.63882 2.824H2.93482V13.6ZM22.252 12.352V10.024H31.516V12.352H22.252ZM18.652 16L25.444 0.448H28.372L35.212 16H32.26L26.308 1.96H27.508L21.58 16H18.652ZM39.1522 0.448H41.8882V16H39.1522V0.448ZM46.2137 10.84H48.8777C48.9417 11.432 49.1737 11.968 49.5737 12.448C49.9897 12.912 50.5337 13.28 51.2057 13.552C51.8937 13.808 52.6777 13.936 53.5577 13.936C54.3417 13.936 54.9897 13.84 55.5017 13.648C56.0137 13.456 56.3897 13.192 56.6297 12.856C56.8857 12.504 57.0137 12.096 57.0137 11.632C57.0137 11.168 56.8617 10.808 56.5577 10.552C56.2697 10.28 55.8217 10.056 55.2137 9.88C54.6057 9.688 53.8297 9.504 52.8857 9.328C52.1017 9.184 51.3417 8.992 50.6057 8.752C49.8697 8.512 49.2057 8.208 48.6137 7.84C48.0377 7.472 47.5817 7.024 47.2457 6.496C46.9097 5.952 46.7417 5.312 46.7417 4.576C46.7417 3.744 46.9737 2.992 47.4377 2.32C47.9177 1.648 48.6217 1.12 49.5497 0.735999C50.4777 0.351999 51.6057 0.159999 52.9337 0.159999C54.9657 0.159999 56.5177 0.631999 57.5897 1.576C58.6617 2.504 59.1817 3.768 59.1497 5.368H56.5337C56.4857 4.36 56.1177 3.632 55.4297 3.184C54.7417 2.736 53.8697 2.512 52.8137 2.512C51.8697 2.512 51.0777 2.68 50.4377 3.016C49.7977 3.352 49.4777 3.896 49.4777 4.648C49.4777 4.968 49.5497 5.248 49.6937 5.488C49.8537 5.712 50.1097 5.92 50.4617 6.112C50.8137 6.288 51.2937 6.464 51.9017 6.64C52.5257 6.8 53.2857 6.976 54.1817 7.168C54.9497 7.296 55.6697 7.472 56.3417 7.696C57.0137 7.92 57.5977 8.2 58.0937 8.536C58.6057 8.872 59.0057 9.304 59.2937 9.832C59.5817 10.36 59.7257 11.008 59.7257 11.776C59.7257 12.656 59.5017 13.44 59.0537 14.128C58.6057 14.8 57.9177 15.336 56.9897 15.736C56.0777 16.12 54.8937 16.312 53.4377 16.312C52.3337 16.312 51.3657 16.184 50.5337 15.928C49.7177 15.656 49.0217 15.312 48.4457 14.896C47.8697 14.464 47.4057 14 47.0537 13.504C46.7177 13.008 46.4777 12.528 46.3337 12.064C46.2057 11.584 46.1657 11.176 46.2137 10.84ZM77.6633 0.448L71.3273 10.936V16H68.5913V10.936L62.2553 0.448H65.3993L70.7513 9.616H69.2633L74.5433 0.448H77.6633ZM87.9176 16V0.448H95.8376C97.7416 0.448 99.1976 0.808 100.206 1.528C101.23 2.232 101.742 3.256 101.742 4.6C101.742 5.464 101.542 6.152 101.142 6.664C100.758 7.16 100.206 7.536 99.4856 7.792C98.7656 8.032 97.9176 8.184 96.9416 8.248L97.0376 8.104C97.7416 8.12 98.4056 8.184 99.0296 8.296C99.6696 8.392 100.23 8.568 100.71 8.824C101.206 9.08 101.59 9.44 101.862 9.904C102.15 10.352 102.294 10.936 102.294 11.656C102.294 12.616 102.054 13.408 101.574 14.032C101.094 14.656 100.43 15.136 99.5816 15.472C98.7336 15.792 97.7576 15.968 96.6536 16H87.9176ZM90.6536 13.672H96.2456C97.2856 13.672 98.0936 13.496 98.6696 13.144C99.2456 12.776 99.5336 12.208 99.5336 11.44C99.5336 10.832 99.3576 10.392 99.0056 10.12C98.6536 9.832 98.1976 9.648 97.6376 9.568C97.0936 9.488 96.5096 9.448 95.8856 9.448H90.6536V13.672ZM90.6536 7.168H95.6696C96.7096 7.168 97.5096 6.992 98.0696 6.64C98.6456 6.272 98.9336 5.696 98.9336 4.912C98.9336 4.144 98.6456 3.6 98.0696 3.28C97.5096 2.944 96.7736 2.776 95.8616 2.776H90.6536V7.168ZM114.734 16.288C112.91 16.288 111.318 15.96 109.958 15.304C108.614 14.648 107.566 13.72 106.814 12.52C106.078 11.32 105.71 9.888 105.71 8.224C105.71 6.56 106.078 5.128 106.814 3.928C107.566 2.712 108.614 1.784 109.958 1.144C111.318 0.487999 112.91 0.159999 114.734 0.159999C116.574 0.159999 118.166 0.487999 119.51 1.144C120.854 1.784 121.894 2.712 122.63 3.928C123.382 5.128 123.758 6.56 123.758 8.224C123.758 9.888 123.382 11.32 122.63 12.52C121.894 13.72 120.854 14.648 119.51 15.304C118.166 15.96 116.574 16.288 114.734 16.288ZM114.734 13.888C115.95 13.888 117.022 13.68 117.95 13.264C118.878 12.848 119.606 12.224 120.134 11.392C120.678 10.544 120.95 9.488 120.95 8.224C120.95 6.976 120.678 5.936 120.134 5.104C119.606 4.256 118.878 3.624 117.95 3.208C117.022 2.776 115.95 2.56 114.734 2.56C113.534 2.56 112.462 2.776 111.518 3.208C110.574 3.624 109.83 4.256 109.286 5.104C108.742 5.936 108.47 6.976 108.47 8.224C108.47 9.488 108.742 10.544 109.286 11.392C109.83 12.224 110.574 12.848 111.518 13.264C112.462 13.68 113.534 13.888 114.734 13.888ZM141.088 9.448V0.448H143.8V9.664C143.8 10.64 143.664 11.496 143.392 12.232C143.136 12.968 142.768 13.592 142.288 14.104C141.808 14.616 141.24 15.04 140.584 15.376C139.928 15.696 139.208 15.928 138.424 16.072C137.656 16.216 136.84 16.288 135.976 16.288C135.08 16.288 134.232 16.216 133.432 16.072C132.632 15.928 131.904 15.696 131.248 15.376C130.592 15.04 130.024 14.616 129.544 14.104C129.08 13.592 128.712 12.968 128.44 12.232C128.184 11.496 128.056 10.64 128.056 9.664V0.448H130.792V9.448C130.792 10.664 131.016 11.592 131.464 12.232C131.928 12.856 132.552 13.288 133.336 13.528C134.12 13.768 135 13.888 135.976 13.888C136.92 13.888 137.776 13.768 138.544 13.528C139.312 13.288 139.928 12.856 140.392 12.232C140.856 11.592 141.088 10.664 141.088 9.448ZM147.259 0.448H162.187V2.8H147.259V0.448ZM153.379 2.512H156.091V16H153.379V2.512ZM166.118 0.448H168.854V16H166.118V0.448ZM181.268 14.968H183.956V20.8H181.268V14.968ZM182.612 16.288C180.788 16.288 179.196 15.96 177.836 15.304C176.492 14.648 175.444 13.72 174.692 12.52C173.956 11.32 173.588 9.888 173.588 8.224C173.588 6.56 173.956 5.128 174.692 3.928C175.444 2.712 176.492 1.784 177.836 1.144C179.196 0.487999 180.788 0.159999 182.612 0.159999C184.452 0.159999 186.044 0.487999 187.388 1.144C188.732 1.784 189.772 2.712 190.508 3.928C191.26 5.128 191.636 6.56 191.636 8.224C191.636 9.888 191.26 11.32 190.508 12.52C189.772 13.72 188.732 14.648 187.388 15.304C186.044 15.96 184.452 16.288 182.612 16.288ZM182.612 13.888C183.828 13.888 184.9 13.68 185.828 13.264C186.756 12.848 187.484 12.224 188.012 11.392C188.556 10.544 188.828 9.488 188.828 8.224C188.828 6.976 188.556 5.936 188.012 5.104C187.484 4.256 186.756 3.624 185.828 3.208C184.9 2.776 183.828 2.56 182.612 2.56C181.412 2.56 180.34 2.776 179.396 3.208C178.452 3.624 177.708 4.256 177.164 5.104C176.62 5.936 176.348 6.976 176.348 8.224C176.348 9.488 176.62 10.544 177.164 11.392C177.708 12.224 178.452 12.848 179.396 13.264C180.34 13.68 181.412 13.888 182.612 13.888ZM208.965 9.448V0.448H211.677V9.664C211.677 10.64 211.541 11.496 211.269 12.232C211.013 12.968 210.645 13.592 210.165 14.104C209.685 14.616 209.117 15.04 208.461 15.376C207.805 15.696 207.085 15.928 206.301 16.072C205.533 16.216 204.717 16.288 203.853 16.288C202.957 16.288 202.109 16.216 201.309 16.072C200.509 15.928 199.781 15.696 199.125 15.376C198.469 15.04 197.901 14.616 197.421 14.104C196.957 13.592 196.589 12.968 196.317 12.232C196.061 11.496 195.933 10.64 195.933 9.664V0.448H198.669V9.448C198.669 10.664 198.893 11.592 199.341 12.232C199.805 12.856 200.429 13.288 201.213 13.528C201.997 13.768 202.877 13.888 203.853 13.888C204.797 13.888 205.653 13.768 206.421 13.528C207.189 13.288 207.805 12.856 208.269 12.232C208.733 11.592 208.965 10.664 208.965 9.448ZM219.312 9.376V13.648H230.232V16H216.576V0.448H230.208V2.8H219.312V7.12H228.24V9.376H219.312Z" fill="white"/>
</svg>
